<?xml version="1.0" encoding="UTF-8"?><svg xmlns="http://www.w3.org/2000/svg" xmlns:xlink="http://www.w3.org/1999/xlink"><symbol viewBox="0 0 22 22" id="icon_facebook" xmlns="http://www.w3.org/2000/svg"><path d="M15.097 22v-8.52h2.86l.428-3.32h-3.288V8.04c0-.96.267-1.616 1.646-1.616H18.5v-2.97a23.53 23.53 0 0 0-2.562-.131c-2.535 0-4.27 1.547-4.27 4.389v2.448H8.8v3.32h2.867V22H1.214C.544 22 0 21.456 0 20.786V1.214C0 .544.543 0 1.214 0h19.572C21.456 0 22 .544 22 1.214v19.572c0 .67-.544 1.214-1.214 1.214h-5.689z" fill="#8C5F38" fill-rule="evenodd"/></symbol><symbol viewBox="0 0 120 147" id="icon_featherplain" xmlns="http://www.w3.org/2000/svg"><g fill="none" fill-rule="evenodd"><path fill="#FFF" fill-rule="nonzero" d="M0 0h120v147H0z"/><path d="M35.726 86.062c.465.025.84.224 1.034.465.21.262.347.748.214 1.079-.136.337-.57.296-.643.063-.073-.233-.043-.145-.201-.505-.147-.336-.737-.477-1.05-.096-.174.213-.324.598-.64.46-.278-.121-.248-.664.31-1.18.372-.344.976-.286.976-.286M38.464 98.084c-1.704-.176-5.122-1.747-6.268-3.285a.559.559 0 0 1 .897-.668c.925 1.243 4.037 2.686 5.439 2.837 1.09.118 2.29.101 3.775-.264 1.624-.4 3.03-1.246 3.651-1.72.296-.227.659-.23.884-.019.225.211.142.559-.07.784-.92.98-2.29 1.485-4.245 2.051-1.256.252-2.305.466-4.063.284M44.67 111.57c-.946 0-1.814-.05-2.583-.153-3.698-.498-7.328-1.724-10.497-3.547-3.499-2.013-6.294-4.634-8.308-7.79a.621.621 0 0 1 1.047-.668c3.655 5.728 10.355 9.755 17.923 10.773 3.412.46 9.16-.23 14.646-1.759 2.926-.815 5.708-1.847 8.045-2.985 2.598-1.265 4.653-2.647 6.106-4.108a.621.621 0 1 1 .881.876c-3.976 3.996-10.916 6.36-14.699 7.414-4.505 1.255-9.06 1.948-12.562 1.948" fill="#A67C52"/><path d="M64 99a5 5 0 1 1 0-10 5 5 0 0 1 0 10zM26 90a4 4 0 1 1-8 0 4 4 0 0 1 8 0" fill="#FBDCEC"/><path d="M41.893 121.433a.621.621 0 0 1-.493-.999c1.202-1.567 1.176-4.585-.06-7.02a.621.621 0 0 1 1.108-.563c1.46 2.88 1.435 6.387-.061 8.339a.62.62 0 0 1-.494.243M75.62 117.593a.618.618 0 0 1-.35-.108c-1.522-1.041-2.544-2.745-3.035-5.066-.538-2.536-.439-5.843.293-9.827a.62.62 0 1 1 1.222.224c-1.295 7.047-.527 11.765 2.222 13.643a.621.621 0 0 1-.351 1.134" fill="#A67C52"/><path d="M83.176 114.83c-2.46-2.94-2.895-2.97-14.701 8.631-14.076 13.831-14.215 21.039-14.466 22.813a.621.621 0 1 0 1.23.174c.18-1.267.412-2.226.643-2.942 3.404 2.813 13.522 4.06 19.833-.182 3.947-2.653 15.725-13.412 16.544-15.663.792-2.178-8.223-11.805-9.083-12.832" fill="#D3B5A1"/><path d="M80.875 113.183c-1.735 0-4.56 2.574-12.4 10.278-14.076 13.831-14.215 21.039-14.466 22.813a.621.621 0 1 0 1.23.174c.18-1.267.412-2.226.643-2.942 1.828 1.51 5.591 2.57 9.661 2.57 3.51 0 7.25-.788 10.172-2.752 3.947-2.653 15.725-13.412 16.544-15.663.792-2.178-8.223-11.805-9.083-12.832-.826-.987-1.424-1.646-2.301-1.646m0 1.118c.343 0 .723.384 1.444 1.246.122.146.36.411.72.814 1.127 1.26 3.227 3.607 5.05 5.938 1 1.278 1.776 2.373 2.306 3.255.703 1.17.785 1.65.794 1.769-.082.171-.467.832-2.121 2.597-1.205 1.286-2.82 2.878-4.67 4.604-3.651 3.406-7.478 6.643-9.307 7.872-2.457 1.652-5.848 2.561-9.548 2.561-1.874 0-3.735-.235-5.38-.68-1.526-.411-2.793-.992-3.57-1.633l-.523-.432a24.8 24.8 0 0 1 1.294-2.934c2.307-4.477 6.309-9.53 11.894-15.02 3.921-3.853 6.557-6.392 8.427-7.97 1.562-1.319 2.635-1.987 3.19-1.987" fill="#A67C52"/><path d="M52.038 145.373c-.14-2.394-9.057-19.351-14.341-26.099.465.158.984.314 1.564.465a.621.621 0 0 0 .769-.496.634.634 0 0 0-.475-.711c-1.785-.467-2.92-.973-3.614-1.367-1.046-1.156-1.867-1.833-2.322-1.787-2.627.265-7.037 12.825-6.789 15.288.249 2.463 10.466 12.503 14.131 13.14 1.399.243 4.569-.885 5.996-1.576a.895.895 0 0 1 .898.068c.903.62 2.664 1.57 2.943 3.148.06.338.314.604.656.584a.621.621 0 0 0 .584-.657" fill="#D3B5A1"/><path d="M33.664 115.376c-.016 0-.03 0-.045.002-2.627.265-7.037 12.825-6.789 15.288.249 2.463 10.466 12.503 14.131 13.14.132.023.28.033.441.033 1.542 0 4.263-.983 5.555-1.609a.895.895 0 0 1 .898.068c.903.62 2.664 1.57 2.943 3.148.057.326.296.585.62.585l.036-.001a.621.621 0 0 0 .584-.657c-.14-2.394-9.057-19.351-14.341-26.099.465.158.984.314 1.564.465a.621.621 0 0 0 .769-.496.634.634 0 0 0-.475-.711c-1.785-.467-2.92-.973-3.614-1.367-1.013-1.12-1.814-1.789-2.277-1.789m-.013 1.024c.176.099.64.423 1.553 1.432l.107.118.139.079.017.01 1.448 1.848c2.326 2.971 5.693 8.407 9.007 14.542 1.43 2.647 2.73 5.212 3.657 7.222.157.339.297.649.422.932a14.66 14.66 0 0 0-1.223-.865 20.754 20.754 0 0 1-.36-.24 1.883 1.883 0 0 0-1.894-.142c-1.274.617-3.831 1.51-5.122 1.51a1.61 1.61 0 0 1-.27-.02c-.403-.07-1.367-.396-3.307-1.8-1.386-1.004-2.951-2.326-4.525-3.825-1.503-1.43-2.888-2.907-3.9-4.157-1.503-1.858-1.578-2.453-1.58-2.477-.08-.788.638-3.957 2.192-7.859.72-1.806 1.466-3.364 2.157-4.505.81-1.335 1.304-1.705 1.482-1.803" fill="#A67C52"/><path d="M54.865 3.923s2.915-2.33 11.042-2.653c8.127-.323 27.12 1.323 37.196 22.09 9.405 19.381 22.923 49.708 13.572 66.523-6.768 12.171-15.437 10.947-21.43 13.047-9.204 3.225-20.86-2.907-20.86-2.907s3.661-4.488 7.804-7.634c.802-.61 6.069-1.34 9.999-5.548.73-.782 4.152-8.696-.783-13.135-3.16-1.55-5.356-4.256-6.806-3.545-5.095 1.994-17.825-3.703-20.262-5.742-2.848.367-4.958.817-10.173-1.926C49.71 60.15 31.402 46.872 30 42.74c.842 12.701-17.306 19.876-18.132 33.05-1.122 6.062.15 13.474 8.504 21.79.3.299.98.898.91 1.778-.345 2.318-9.952-1.112-13.755-4.441C-2.593 86.058.98 70.935 5.605 54.943s9.131-34.928 18.483-43.806C33.44 2.258 49.285.594 54.865 3.923" fill="#D3B5A1"/><path d="M88.285 104.289c-.413 0-.822-.008-1.228-.023-4.277-.157-8.21-1.146-11.692-2.94a.56.56 0 0 1 .512-.993c3.334 1.718 7.11 2.665 11.221 2.816 3.735.137 7.84-.38 12.206-1.534a.559.559 0 1 1 .286 1.08c-4 1.06-7.797 1.594-11.305 1.594M101.904 101.15c-3.846 0-7.196-1.378-9.14-2.787a.559.559 0 1 1 .656-.905c1.265.917 2.954 1.667 4.758 2.112 2.159.532 4.402.602 6.487.201a14.2 14.2 0 0 0 5.474-2.33c1.915-1.337 3.629-3.19 5.094-5.507 1.866-2.95 3.017-6.598 3.421-10.843.386-4.054.104-8.79-.838-14.075-1.719-9.64-5.609-21.319-11.894-35.705-8.12-18.586-20.104-25.729-28.728-28.449-5.342-1.684-9.912-1.856-12.804-1.704-3.832.201-6.463 1.045-7.647 1.768a.56.56 0 0 1-.583-.954C59.262.08 67.943-1.227 77.53 1.796c8.845 2.79 21.129 10.097 29.417 29.068 6.32 14.467 10.235 26.228 11.97 35.955.96 5.386 1.246 10.223.85 14.378-.42 4.421-1.628 8.235-3.589 11.334-1.545 2.444-3.362 4.404-5.399 5.826a15.311 15.311 0 0 1-8.875 2.793M19.023 100.585c-2.94 0-7.297-1.726-10.864-4.44C4.866 93.638-.568 88.152.05 79.572c.364-5.08 3.07-17.472 8.042-36.833.265-1.03.44-1.711.471-1.853.012-.053 1.389-5.79 4.35-12.855 1.597-3.807 3.328-7.202 5.144-10.09 2.265-3.602 4.677-6.429 7.168-8.404 4.254-3.374 8.264-5.66 12.258-6.989C42.385.917 47.258.791 51.964 2.175a.559.559 0 1 1-.315 1.073c-8.195-2.41-16.612-.066-25.73 7.165-2.392 1.896-4.719 4.629-6.916 8.123-1.784 2.836-3.486 6.176-5.06 9.927-2.61 6.23-4.104 11.82-4.29 12.663-.035.161-.202.813-.479 1.891-4.956 19.297-7.65 31.622-8.01 36.635-.579 8.055 4.559 13.233 7.672 15.603 2.062 1.57 4.44 2.834 6.694 3.562 2.005.648 3.804.82 4.815.46a.559.559 0 1 1 .374 1.054c-.483.172-1.056.254-1.696.254" fill="#A67C52"/><path d="M61.693 65.682c-1.45 0-3.408-.567-5.856-1.698-2.3-1.062-5.038-2.688-8.136-4.832-2.697-1.867-5.598-4.083-8.388-6.41-2.566-2.14-4.95-4.306-6.716-6.098-1.9-1.927-2.968-3.296-3.178-4.07a.559.559 0 1 1 1.08-.292c.28 1.034 3.715 4.75 9.53 9.601 6.093 5.082 12.026 9.123 16.276 11.086 4.417 2.04 6.055 1.693 6.638 1.304a.984.984 0 0 0 .45-.76.56.56 0 0 1 1.116-.042c.015.4-.168 1.215-.946 1.733-.478.318-1.103.478-1.87.478" fill="#A67C52"/><path d="M81.343 71.378c-1.43 0-3.131-.2-4.95-.602-1.938-.43-4.84-1.282-7.66-2.91-2.69-1.553-4.655-3.434-5.838-5.591a56.446 56.446 0 0 1-5.778-15.77c-.824-4.08-1.013-7.733-.46-8.885a.559.559 0 1 1 1.008.484c-.314.653-.356 3.704.548 8.18a55.313 55.313 0 0 0 5.662 15.453c1.084 1.975 2.906 3.711 5.417 5.16 2.697 1.557 5.482 2.375 7.343 2.787 3.868.856 6.768.661 7.633.026a.559.559 0 0 1 .661.902c-.693.509-1.965.766-3.586.766M85.42 68.492a.564.564 0 0 1-.102-.009c-.933-.17-1.82-1.021-2.714-2.6-1.53-2.707-3.035-7.647-3.926-12.893-.915-5.396-.99-9.874-.197-11.98a.559.559 0 1 1 1.046.395c-.714 1.899-.617 6.266.254 11.398.87 5.127 2.325 9.928 3.797 12.53.93 1.645 1.616 1.99 1.941 2.05a.559.559 0 0 1-.1 1.11" fill="#A67C52"/><path d="M30 75.792c0 3.973-1.983 7.194-4.429 7.194-2.447 0-4.43-3.221-4.43-7.194 0-3.974 1.983-7.194 4.43-7.194 2.446 0 4.43 3.22 4.43 7.194" fill="#A57142"/><path d="M18.916 67.28c1.918-.903 3.375-.705 3.87-.663 2.51.213 5.976 2.33 6.502 2.668.507.327 1.554 1.136 1.644 1.2.234.168.375.358.439.524a.467.467 0 0 1-.42.631c-.339.022-.556-.101-.73-.192-.175-.091-.882-.617-1.335-.943-.453-.325-1.198-.985-2.265-1.418-.844-.342-1.74-.734-3.234-.797-.78-.033-1.994.021-3.212.618-.397.195-1.198.727-1.547.989-.349.261-.959.69-1.503.105-.545-.584.07-1.325.208-1.5.467-.547 1.583-1.222 1.583-1.222" fill="#A57142"/><path d="M17.747 64.625c.24.219.288.475.288.786 0 .31.055.685.312 1.024.27.357.527.645.527.645.1.144.279.323.288.54.007.184-.082.275-.153.353-.071.078-.45.26-.7.06-.252-.2-.452-.487-.63-.682-.18-.195-.399-.543-.454-.625-.052-.079-.174-.248-.357-.847-.109-.355-.137-1.016.186-1.247.28-.2.58-.112.693-.007M18.702 63.886c.14-.343.467-.427.713-.407.292.024.53.281.57.46.04.18.02.518-.06.746-.112.323-.069.567-.059.676.01.11.06.368.1.498.04.129.157.49.189.567.03.073.109.253.139.3a.539.539 0 0 1-.023.496c-.13.209-.385.236-.475.236-.266 0-.586-.31-.696-.625-.136-.393-.19-.819-.238-1.124-.048-.298-.16-.604-.25-.944-.113-.432.09-.879.09-.879M21.332 63.35a.61.61 0 0 1 .587.126c.189.178.225.465-.019.818-.281.407-.334.783-.354.92-.049.343.007.75.08 1.03.074.281.077.934-.353.928-.09.019-.273.002-.44-.237-.166-.239-.245-.681-.267-.917-.021-.237-.064-.602 0-.967.065-.365.144-.79.19-.945.123-.404.33-.69.576-.756M66.335 78.145c0 4.803-2.836 8.696-6.335 8.696-3.5 0-6.336-3.893-6.336-8.696 0-4.802 2.837-8.695 6.336-8.695s6.335 3.893 6.335 8.695" fill="#A57142"/><path d="M54.177 67.713c1.785-.15 3.205.01 4.608.34 1.22.266 2.257.792 2.802 1 2.845 1.421 4.491 2.955 4.87 3.324.389.381.656.602 1.487 1.48a28.2 28.2 0 0 1 1.925 2.306c.261.356-.3.641-.494.403-.195-.237-3.478-3.043-4.712-3.968-1.233-.926-3.503-2.183-5.529-2.509-2.026-.326-2.986-.416-5.013-.073-1.191.201-3.566 1.537-3.84 1.75-.276.215-1.701.785-2.129.048-.428-.736-.044-1.776.76-2.347 1.368-.97 3.836-1.634 5.265-1.754" fill="#A57142"/><path d="M69.87 70.113c-.003-.51-.605-.874-1.056-.363-.381.56-.446.826-.707 1.217-.27.405-.501.542-.918.792-.418.25-.48.208-.798.375-.583.266-.548.68-.43.849.074.104.284.3.667.137.133-.057.852-.43 1.019-.539.167-.108.707-.454.918-.616.198-.15.495-.38.826-.765.144-.167.482-.676.48-1.087M68.346 68.258c-.172-.51-.923-.67-1.226 0-.213.693-.192.984-.336 1.467-.149.5-.345.717-.698 1.113-.354.396-.434.374-.71.651-.522.469-.349.873-.169 1.002.111.08.396.203.743-.093.121-.103.75-.726.888-.893.139-.166.589-.7.757-.935a5.5 5.5 0 0 0 .61-1.054c.095-.217.28-.846.141-1.258" fill="#A57142"/><path d="M66.475 67.47c-.267-.468-1.035-.48-1.203.236-.076.721 0 1.003-.048 1.504-.05.519-.2.77-.47 1.227-.272.456-.354.45-.572.775-.422.56-.174.924.027 1.016.124.056.428.123.712-.234.098-.124.595-.857.699-1.047.104-.19.443-.801.562-1.064.112-.245.278-.618.397-1.152.05-.231.112-.883-.104-1.262" fill="#A57142"/><path d="M82.655 93.033c-.437 0-.647-.093-.775-.178a.559.559 0 0 1 .583-.953c.272.068 1.574-.069 3.369-.825 1.15-.485 3.27-1.568 4.55-3.378l.017-.025.02-.022c1.134-1.288 2.04-3.98 2.294-5.394a27.4 27.4 0 0 1 .058-.306c.3-1.562 1.004-5.218-1.64-7.85-.675-.678-1.695-1.186-2.728-1.36-.886-.148-2.235-.13-3.628.803a.56.56 0 0 1-.622-.929c1.344-.9 2.877-1.237 4.436-.976 1.273.214 2.488.823 3.333 1.671 1.32 1.314 2.075 2.99 2.245 4.982.137 1.607-.135 3.024-.298 3.87l-.056.294c-.115.642-.403 1.746-.862 2.917-.35.893-.923 2.133-1.673 2.994-1.491 2.092-3.904 3.292-5.212 3.822-.853.345-1.734.61-2.48.745a5.306 5.306 0 0 1-.931.098M63.392 63.488v.001zm0 .001v.004-.004zm-.29 1.152c-.307 0-.66-.06-1.063-.179-.923-.275-2.133-.88-3.594-1.8-2.131-1.342-4.228-3.65-6.231-6.862-1.659-2.658-3.256-5.964-4.621-9.558-1.163-3.065-2.13-6.267-2.722-9.017-.411-1.908-.815-4.4-.405-5.432a.559.559 0 1 1 1.039.412c-.17.43-.153 1.942.459 4.785.58 2.697 1.53 5.842 2.674 8.855 1.34 3.528 2.904 6.766 4.524 9.364 1.913 3.066 3.891 5.256 5.879 6.507 3.24 2.04 4.157 1.832 4.307 1.77.015-.006.039-.017.045-.03a.559.559 0 0 1 1.117.035c0 .292-.157.72-.6.964a1.642 1.642 0 0 1-.807.186zM20.373 98.14a.557.557 0 0 1-.312-.096c-2.897-1.954-5.315-4.9-6.991-8.517-1.228-2.65-2.06-5.708-2.225-8.183l-.001-.03c-.043-2.889.164-5.576.615-7.985.645-3.45 1.78-6.213 3.371-8.21 2.018-2.532 3.523-3.758 4.978-4.943 1.607-1.309 3.125-2.545 5.274-5.49 1.735-2.378 2.914-4.608 3.605-6.818.677-2.162.755-3.961.755-5.127a.559.559 0 1 1 1.118 0c0 2.95-.52 7.047-4.575 12.604-2.234 3.062-3.88 4.402-5.47 5.697-1.41 1.148-2.868 2.335-4.81 4.773-1.477 1.853-2.536 4.45-3.147 7.72-.436 2.331-.637 4.939-.597 7.749.246 3.615 2.383 11.555 8.725 15.833a.559.559 0 0 1-.313 1.023M11.625 63.947a.558.558 0 0 1-.361-.985c3.213-2.724 6.25-6.956 8.551-11.914 2.18-4.698 3.431-9.504 3.431-13.186a.559.559 0 1 1 1.118 0c0 3.839-1.288 8.816-3.534 13.656-2.368 5.103-5.509 9.47-8.843 12.296a.557.557 0 0 1-.362.133" fill="#A67C52"/></g></symbol><symbol viewBox="0 0 24 24" id="icon_github" xmlns="http://www.w3.org/2000/svg"><path d="M12 0C5.37 0 0 5.37 0 12c0 5.31 3.435 9.795 8.205 11.385.6.105.825-.255.825-.57 0-.285-.015-1.23-.015-2.235-3.015.555-3.795-.735-4.035-1.41-.135-.345-.72-1.41-1.23-1.695-.42-.225-1.02-.78-.015-.795.945-.015 1.62.87 1.845 1.23 1.08 1.815 2.805 1.305 3.495.99.105-.78.42-1.305.765-1.605-2.67-.3-5.46-1.335-5.46-5.925 0-1.305.465-2.385 1.23-3.225-.12-.3-.54-1.53.12-3.18 0 0 1.005-.315 3.3 1.23.96-.27 1.98-.405 3-.405s2.04.135 3 .405c2.295-1.56 3.3-1.23 3.3-1.23.66 1.65.24 2.88.12 3.18.765.84 1.23 1.905 1.23 3.225 0 4.605-2.805 5.625-5.475 5.925.435.375.81 1.095.81 2.22 0 1.605-.015 2.895-.015 3.3 0 .315.225.69.825.57C20.565 21.795 24 17.295 24 12c0-6.63-5.37-12-12-12z" fill="#8C5F38" fill-rule="evenodd"/></symbol><symbol viewBox="0 0 22 22" id="icon_instagram" xmlns="http://www.w3.org/2000/svg"><path d="M11 0C8.013 0 7.638.013 6.465.066c-1.171.054-1.97.24-2.67.512a5.392 5.392 0 0 0-1.949 1.268A5.392 5.392 0 0 0 .577 3.795c-.271.7-.457 1.499-.51 2.67C.012 7.638 0 8.013 0 11s.013 3.362.066 4.535c.054 1.171.24 1.97.511 2.67a5.393 5.393 0 0 0 1.27 1.949 5.393 5.393 0 0 0 1.948 1.269c.7.271 1.499.457 2.67.51C7.638 21.988 8.013 22 11 22s3.362-.013 4.535-.066c1.171-.054 1.97-.24 2.67-.511a5.392 5.392 0 0 0 1.949-1.27 5.392 5.392 0 0 0 1.268-1.948c.272-.7.458-1.499.512-2.67.053-1.173.066-1.548.066-4.535s-.013-3.362-.066-4.535c-.054-1.171-.24-1.97-.512-2.67a5.392 5.392 0 0 0-1.268-1.949A5.391 5.391 0 0 0 18.205.578c-.7-.272-1.499-.458-2.67-.512C14.362.013 13.987 0 11 0m0 1.982c2.937 0 3.285.011 4.445.064 1.072.049 1.655.228 2.042.379.514.2.88.438 1.265.823.385.385.624.751.823 1.265.15.387.33.97.379 2.042.053 1.16.064 1.508.064 4.445 0 2.937-.011 3.285-.064 4.445-.05 1.072-.228 1.655-.379 2.042-.2.514-.438.88-.823 1.265a3.408 3.408 0 0 1-1.265.823c-.387.15-.97.33-2.042.379-1.16.053-1.508.064-4.445.064-2.937 0-3.285-.011-4.445-.064-1.072-.049-1.655-.228-2.043-.379-.513-.2-.88-.438-1.264-.823a3.408 3.408 0 0 1-.823-1.265c-.15-.387-.33-.97-.379-2.042-.053-1.16-.064-1.508-.064-4.445 0-2.937.011-3.285.064-4.445.049-1.072.228-1.655.379-2.042.2-.514.438-.88.823-1.265a3.408 3.408 0 0 1 1.264-.823c.388-.15.97-.33 2.043-.379 1.16-.053 1.508-.064 4.445-.064m0 12.685a3.667 3.667 0 1 1 0-7.334 3.667 3.667 0 0 1 0 7.334m0-9.316a5.649 5.649 0 1 0 0 11.298A5.649 5.649 0 0 0 11 5.35m7.192-.223a1.32 1.32 0 1 1-2.64 0 1.32 1.32 0 0 1 2.64 0" fill="#8C5F38" fill-rule="evenodd"/></symbol><symbol viewBox="0 0 20 24" id="icon_rocket" xmlns="http://www.w3.org/2000/svg"><path d="M12 24H7.2c-.961 0-1.922-1.347-2.73-3.27L1.2 24 0 22.8V18l2.859-2.859c-.291-1.55-.459-3.072-.459-4.341C2.4 6 6 0 9.6 0s7.2 6 7.2 10.8c0 1.27-.168 2.79-.459 4.341L19.2 18v4.8L18 24l-3.27-3.27C13.921 22.652 12.96 24 12 24zm-2.4-2.4H7.662a3.763 3.763 0 0 1-.214-.299c-.417-.638-.864-1.638-1.271-2.86C5.347 15.95 4.8 12.906 4.8 10.8c0-3.838 2.933-8.4 4.8-8.4s4.8 4.562 4.8 8.4c0 2.106-.546 5.15-1.377 7.641-.407 1.222-.854 2.222-1.27 2.86-.08.122-.153.222-.215.299H9.6zm0-9.6a2.4 2.4 0 1 0 0-4.8 2.4 2.4 0 0 0 0 4.8z" fill="#8C5F38" fill-rule="evenodd"/></symbol><symbol viewBox="0 0 24 20" id="icon_twitter" xmlns="http://www.w3.org/2000/svg"><path d="M7.539 19.515c9.056 0 14.012-7.51 14.012-14.012 0-.211 0-.423-.01-.634A10.033 10.033 0 0 0 24 2.315a9.98 9.98 0 0 1-2.833.777 4.955 4.955 0 0 0 2.17-2.727c-.95.567-2.007.97-3.13 1.19A4.915 4.915 0 0 0 16.614 0a4.93 4.93 0 0 0-4.927 4.927c0 .384.048.758.125 1.123C7.72 5.85 4.09 3.88 1.66.903A4.926 4.926 0 0 0 1 3.38c0 1.709.874 3.217 2.19 4.1A4.981 4.981 0 0 1 .96 6.867v.067c0 2.382 1.7 4.38 3.948 4.83a4.801 4.801 0 0 1-1.297.174c-.317 0-.624-.03-.922-.087a4.924 4.924 0 0 0 4.6 3.42 9.877 9.877 0 0 1-6.117 2.112c-.394 0-.788-.02-1.172-.067a14.008 14.008 0 0 0 7.539 2.199" fill="#8C5F38" fill-rule="nonzero"/></symbol></svg>