<?xml version="1.0" encoding="UTF-8"?>
<svg width="120px" height="147px" viewBox="0 0 120 147" version="1.1" xmlns="http://www.w3.org/2000/svg" xmlns:xlink="http://www.w3.org/1999/xlink">
    <!-- Generator: Sketch 51.3 (57544) - http://www.bohemiancoding.com/sketch -->
    <title>icon_featherplain</title>
    <desc>Created with Sketch.</desc>
    <defs></defs>
    <g id="Page-1" stroke="none" stroke-width="1" fill="none" fill-rule="evenodd">
        <g id="iPhone-8" transform="translate(-128.000000, -87.000000)">
            <g id="icon_featherplain" transform="translate(128.000000, 87.000000)">
                <rect id="background" fill="#FFFFFF" fill-rule="nonzero" x="0" y="0" width="120" height="147"></rect>
                <path d="M35.7258012,86.0623665 C36.190646,86.0873975 36.5663602,86.2859689 36.7602112,86.5273975 C36.9703975,86.7891988 37.107354,87.2754099 36.9738137,87.6059068 C36.8375404,87.9428012 36.404559,87.9017453 36.3314534,87.6690124 C36.2583478,87.4362795 36.2875404,87.5236708 36.1300248,87.1644783 C35.9826335,86.8283913 35.3930062,86.6869006 35.0804596,87.0680807 C34.9062981,87.2805652 34.756236,87.6656584 34.4402733,87.5279565 C34.1620124,87.4065901 34.1920124,86.8644161 34.7495901,86.3485155 C35.1221988,86.0038571 35.7258012,86.0623665 35.7258012,86.0623665" id="path" fill="#A67C52"></path>
                <path d="M38.464,98.0839689 C36.7598385,97.9078199 33.3420745,96.3371988 32.1960497,94.7993106 C32.0115776,94.551795 32.0626957,94.2015466 32.3102733,94.0170124 C32.5577267,93.8326025 32.9079752,93.8836584 33.0925714,94.131236 C34.0184099,95.3736584 37.1304596,96.8165155 38.5317019,96.9680062 C39.6226335,97.0860807 40.8220745,97.0693727 42.3072919,96.7041553 C43.9311429,96.3048385 45.3372919,95.4579441 45.9581615,94.9832236 C46.2539379,94.7570745 46.616795,94.7535963 46.8417019,94.9649627 C47.0666708,95.1763913 46.9843106,95.5238447 46.772882,95.7488137 C45.8510807,96.7297453 44.4815155,97.2343416 42.5272298,97.8003665 C41.2712671,98.052354 40.2220124,98.2657081 38.464,98.0839689" id="path" fill="#A67C52"></path>
                <path d="M44.6694783,111.570665 C43.724323,111.570665 42.8563106,111.52023 42.0866211,111.416627 C38.3886708,110.91905 34.7590435,109.692652 31.5902236,107.869981 C28.0910311,105.857373 25.2955652,103.236379 23.281528,100.080043 C23.0970559,99.790913 23.1818385,99.4068758 23.4710311,99.2223416 C23.7602236,99.0378075 24.1442609,99.1227143 24.3287329,99.4118447 C27.9835155,105.139547 34.6838882,109.167062 42.2523354,110.185447 C45.6637019,110.64464 51.412646,109.954143 56.897677,108.426379 C59.8237019,107.61141 62.6056894,106.579174 64.9429565,105.441224 C67.5414037,104.176068 69.5959379,102.793957 71.0494783,101.333273 C71.2914037,101.090106 71.6846957,101.089112 71.9278634,101.331099 C72.1710311,101.573025 72.1720248,101.966317 71.9300994,102.209484 C67.9540745,106.205137 61.0139503,108.569422 57.2309689,109.623087 C52.7261863,110.877807 48.1703478,111.570665 44.6694783,111.570665" id="path" fill="#A67C52"></path>
                <path d="M64,99 C61.2386111,99 59,96.7614481 59,94.0000287 C59,91.2385519 61.2386111,89 64,89 C66.7614444,89 69,91.2385519 69,94.0000287 C69,96.7614481 66.7614444,99 64,99 Z" id="path" fill="#FBDCEC"></path>
                <path d="M26,90 C26,92.2091818 24.20915,94 22,94 C19.7908,94 18,92.2091818 18,90 C18,87.7908636 19.7908,86 22,86 C24.20915,86 26,87.7908636 26,90" id="path" fill="#FBDCEC"></path>
                <path d="M41.8934348,121.433398 C41.7615714,121.433398 41.6287143,121.391596 41.5160435,121.305261 C41.2437453,121.096503 41.1921925,120.706689 41.4008261,120.434391 C42.6018199,118.867373 42.5756087,115.848988 41.3399565,113.413273 C41.1847391,113.107311 41.3069752,112.733584 41.6128137,112.578366 C41.9187764,112.423149 42.2926273,112.545261 42.4477826,112.851224 C43.9086522,115.730789 43.883,119.237807 42.3868509,121.190043 C42.2646149,121.349547 42.0800186,121.433398 41.8934348,121.433398" id="path" fill="#A67C52"></path>
                <path d="M75.6206273,117.593447 C75.499882,117.593447 75.3778944,117.558354 75.2706894,117.485062 C73.7475217,116.443944 72.7259689,114.739596 72.2345404,112.419348 C71.6972733,109.882888 71.7960932,106.576491 72.528205,102.591957 C72.5901304,102.254503 72.9139814,102.031087 73.2513106,102.093261 C73.5887019,102.155248 73.8119317,102.478975 73.7499441,102.816429 C72.4551615,109.863323 73.2234224,114.581025 75.9716211,116.459472 C76.2548509,116.653012 76.3275217,117.039534 76.1339814,117.322764 C76.0136708,117.498789 75.8188261,117.593447 75.6206273,117.593447" id="path" fill="#A67C52"></path>
                <path d="M83.1763665,114.829292 C80.7168634,111.890037 80.2807143,111.859727 68.4746894,123.461093 C54.3992236,137.29246 54.2599068,144.499602 54.009472,146.274012 C53.9615217,146.61364 54.1979814,146.927863 54.5376708,146.975814 C54.5671118,146.979975 54.5963043,146.981963 54.6252484,146.981963 C54.9297205,146.981963 55.1956832,146.757863 55.239472,146.447615 C55.4182298,145.18128 55.6514596,144.221776 55.8815839,143.506311 C59.2864286,146.319168 69.4035093,147.565689 75.7149379,143.323764 C79.6624534,140.670596 91.4402795,129.911776 92.2587888,127.660907 C93.0506522,125.483267 84.0358696,115.856435 83.1763665,114.829292" id="path" fill="#D3B5A1"></path>
                <path d="M80.8746522,113.182596 C79.1403665,113.182596 76.3145901,115.757006 68.4746522,123.461043 C54.3992484,137.292472 54.2599938,144.499615 54.0094969,146.273963 C53.9614845,146.61359 54.1980062,146.927876 54.5376957,146.975764 C54.5670745,146.979988 54.5963292,146.981975 54.6252733,146.981975 C54.9297453,146.981975 55.195646,146.757876 55.2394348,146.447565 C55.4182547,145.181292 55.6514224,144.221727 55.8815466,143.506323 C57.7097453,145.016634 61.4733478,146.075391 65.543472,146.075391 C69.0539068,146.075391 72.7922298,145.288 75.7149627,143.323714 C79.6624161,140.670609 91.4402422,129.911789 92.2587516,127.660919 C93.0506149,125.48328 84.0358944,115.856385 83.1764534,114.829304 C82.3501801,113.841851 81.7519814,113.182596 80.8746522,113.182596 M80.8746522,114.300609 C81.2181925,114.300609 81.5979441,114.685019 82.319,115.546758 C82.4410497,115.692658 82.6788137,115.958373 83.0385652,116.360609 C84.1664534,117.621478 86.2657702,119.968311 88.0887516,122.298807 C89.0888137,123.577255 89.8646522,124.672472 90.3947143,125.554149 C91.097882,126.723466 91.1801801,127.204584 91.1890621,127.322658 C91.1067019,127.494335 90.7221677,128.155205 89.067882,129.920174 C87.8626025,131.206075 86.2476335,132.798062 84.3975714,134.524025 C80.7470124,137.929615 76.920118,141.166696 75.0913602,142.395826 C72.6335342,144.047689 69.2427888,144.957379 65.543472,144.957379 C63.6688137,144.957379 61.8083789,144.722472 60.1634099,144.277938 C58.637323,143.865516 57.369559,143.285391 56.5936584,142.644398 L56.0697453,142.21154 C56.3771988,141.359925 56.7938447,140.383839 57.3636584,139.278 C59.6707391,134.800547 63.6727267,129.747255 69.2583168,124.258497 C73.1792484,120.405453 75.8152112,117.86595 77.6854596,116.28713 C79.2470124,114.968994 80.3199938,114.300609 80.8746522,114.300609" id="path" fill="#A67C52"></path>
                <path d="M52.037913,145.373497 C51.8982857,142.97859 42.9805217,126.021882 37.6969193,119.274491 C38.1615155,119.431509 38.680646,119.587658 39.2607081,119.738901 C39.3133168,119.752627 39.3659876,119.759087 39.4178509,119.759087 C39.7103354,119.759087 39.9759876,119.55095 40.0296522,119.242938 C40.085677,118.921634 39.8710186,118.614491 39.5554907,118.531944 C37.770087,118.064925 36.6344969,117.558963 35.9408323,117.164801 C34.8947453,116.00859 34.0741863,115.332379 33.6189068,115.37828 C30.991764,115.643062 26.5821366,128.203248 26.8303975,130.666354 C27.0785963,133.12946 37.2961739,143.168901 40.9610186,143.805671 C42.3597764,144.048714 45.5296522,142.921447 46.9569193,142.230081 C47.2471056,142.08946 47.5892174,142.115547 47.8550559,142.298031 C48.7583478,142.918217 50.5194037,143.868217 50.7977888,145.445795 C50.857354,145.783621 51.1115776,146.049708 51.4540621,146.029708 C51.7965466,146.009273 52.057913,145.715919 52.037913,145.373497" id="path" fill="#D3B5A1"></path>
                <path d="M33.663677,115.376106 C33.6483975,115.376106 33.6335528,115.376851 33.6189565,115.37828 C30.9916894,115.643124 26.5821242,128.203248 26.830323,130.666354 C27.078646,133.12946 37.2961615,143.168901 40.9610062,143.805733 C41.0932422,143.828652 41.2415031,143.839398 41.4024969,143.839398 C42.9437391,143.839398 45.6645466,142.856106 46.9569068,142.230081 C47.0809441,142.169957 47.2144845,142.140267 47.3474658,142.140267 C47.5256646,142.140267 47.7028075,142.193497 47.8550435,142.298031 C48.7583354,142.918217 50.5193292,143.868217 50.7977143,145.445795 C50.8552298,145.771634 51.0938634,146.030764 51.4180248,146.030764 C51.4299503,146.030764 51.4418758,146.030453 51.4540497,146.029708 C51.7965963,146.009273 52.0579006,145.715919 52.0379006,145.373497 C51.8982733,142.97859 42.9805093,126.021944 37.6969689,119.274491 C38.1615031,119.431509 38.6806335,119.587658 39.2606957,119.738901 C39.3132422,119.752627 39.3660373,119.759087 39.4178385,119.759087 C39.7104472,119.759087 39.9759752,119.55095 40.0297019,119.242938 C40.0857888,118.921571 39.8710062,118.614491 39.5554783,118.531944 C37.7700124,118.064863 36.6344224,117.558901 35.9407578,117.164801 C34.9281491,116.045484 34.1268447,115.376106 33.663677,115.376106 M33.6512547,116.399646 C33.8269068,116.498714 34.2911925,116.822627 35.2038012,117.831509 L35.3110062,117.949957 L35.4498882,118.028901 C35.4555404,118.03213 35.4611925,118.035298 35.4669068,118.038528 L36.9145466,119.887224 C39.2410683,122.85828 42.6083354,128.294242 45.9220621,134.428528 C47.3524348,137.076354 48.6511304,139.641261 49.5790186,141.650702 C49.7356646,141.989894 49.8756646,142.299957 50.0005714,142.582938 C49.5785839,142.241696 49.1460373,141.958714 48.7782733,141.718155 C48.6468447,141.632193 48.5226211,141.550888 48.4175901,141.478839 C48.1010683,141.261447 47.7309441,141.14654 47.3474658,141.14654 C47.0639876,141.14654 46.7790807,141.211944 46.523677,141.335671 C45.249764,141.952814 42.6929938,142.845609 41.4024969,142.845609 C41.2687702,142.845609 41.1811925,142.835236 41.1311925,142.82654 C40.7290807,142.756727 39.7648571,142.42977 37.8246087,141.02536 C36.4385217,140.022068 34.8738012,138.699646 33.2997019,137.201137 C31.7967826,135.770391 30.4119379,134.293994 29.4001366,133.043745 C27.8966584,131.186043 27.8215652,130.591075 27.8191429,130.566665 C27.739764,129.779149 28.4578385,126.610081 30.0124969,122.708466 C30.7322484,120.901944 31.478087,119.344118 32.169205,118.203311 C32.9782112,116.868031 33.4728075,116.497783 33.6512547,116.399646" id="path" fill="#A67C52"></path>
                <path d="M54.8650311,3.92290683 C54.8650311,3.92290683 57.7798137,1.59265839 65.9068944,1.26967702 C74.0340373,0.946757764 93.0264596,2.59315528 103.103478,23.3601739 C112.507888,42.7411677 126.025714,73.0681863 116.675217,89.8830311 C109.906957,102.054335 101.237578,100.829863 95.2459006,102.929677 C86.0413043,106.155391 74.3850311,100.022534 74.3850311,100.022534 C74.3850311,100.022534 78.0462112,95.5347702 82.1886957,92.3889938 C82.991118,91.7796149 88.2579503,91.0483727 92.1875155,86.8408571 C92.9180124,86.0586211 96.3395031,78.145205 91.4054658,73.7058261 C88.2457764,72.155205 86.0491304,69.4495528 84.5986335,70.1610435 C79.5039752,72.155205 66.7740994,66.4575652 64.3370807,64.4188696 C61.4886335,64.7860745 59.3786335,65.2355776 54.1635404,62.4925342 C49.7111801,60.1506708 31.4020497,46.8716646 30.0008075,42.7411677 C30.8430435,55.4421615 12.6947205,62.616882 11.8690683,75.7916025 C10.7473913,81.8530311 12.0196894,89.2653913 20.373354,97.5808571 C20.6736646,97.8798012 21.3528571,98.4789938 21.2838509,99.3587453 C20.9375155,101.676882 11.331118,98.246882 7.52757764,94.9175031 C-2.59310559,86.0586211 0.981180124,70.9354534 5.60534161,54.9432174 C10.229441,38.9509193 14.7364596,20.0150186 24.088323,11.1366335 C33.4401863,2.25818634 49.2847205,0.59352795 54.8650311,3.92290683" id="path" fill="#D3B5A1"></path>
                <path d="M88.2853043,104.288602 C87.871764,104.288602 87.4626335,104.281149 87.0571677,104.266304 C82.7802733,104.10941 78.8464845,103.120404 75.365118,101.326801 C75.090646,101.185373 74.9828199,100.848292 75.1241863,100.57382 C75.2656149,100.29941 75.6026335,100.191584 75.8771677,100.332888 C79.2113913,102.050776 82.9866708,102.998292 87.0981615,103.149037 C90.832882,103.28618 94.9386584,102.769845 99.3036894,101.614876 C99.6022609,101.535932 99.9081615,101.71382 99.9869814,102.012329 C100.065988,102.310714 99.8880994,102.616677 99.5895901,102.695683 C95.589528,103.754068 91.7931925,104.288602 88.2853043,104.288602" id="path" fill="#A67C52"></path>
                <path d="M101.903503,101.150255 C98.0580994,101.150255 94.7080994,99.7723043 92.7638758,98.3632981 C92.5138758,98.1821801 92.4580994,97.8326149 92.6392795,97.582677 C92.8203354,97.332677 93.1698385,97.2767143 93.4199006,97.4580807 C94.6846832,98.3746025 96.3744348,99.1245404 98.1780373,99.5695714 C100.336547,100.102118 102.57959,100.171745 104.664683,99.7710621 C106.620584,99.3950994 108.462634,98.6110621 110.139466,97.4405652 C112.054,96.1042298 113.767851,94.251559 115.233441,91.9339193 C117.099093,88.983795 118.250025,85.3356584 118.654124,81.0909379 C119.040087,77.0372112 118.757975,72.301559 117.815739,67.0157205 C116.097354,57.3760311 112.206981,45.6970248 105.922261,31.3113106 C97.8025714,12.7252857 85.8180373,5.58218012 77.1941242,2.86249068 C71.8520124,1.1778323 67.2823851,1.00565839 64.3895901,1.15764596 C60.5583478,1.35907453 57.927354,2.20342236 56.7426335,2.92646584 C56.4790311,3.08721118 56.135118,3.00404348 55.9742484,2.74050311 C55.813441,2.47690062 55.8966708,2.13292547 56.1602112,1.9720559 C59.2621988,0.0790124224 67.9430683,-1.22701242 77.5303354,1.79621739 C86.3754286,4.58565839 98.6589068,11.8927391 106.946733,30.8636708 C113.267106,45.331 117.182385,57.0922422 118.91636,66.8194472 C119.876422,72.2050373 120.162696,77.0423665 119.767106,81.1969006 C119.346174,85.6180807 118.138783,89.431559 116.178348,92.5314969 C114.632882,94.9753478 112.816422,96.935472 110.779342,98.3573354 C108.973006,99.618205 106.986733,100.463236 104.875739,100.869012 C103.863441,101.063547 102.867789,101.150255 101.903503,101.150255" id="path" fill="#A67C52"></path>
                <path d="M19.0225217,100.584702 C16.0835155,100.58495 11.7263106,98.8594224 8.1591677,96.1445776 C4.86562733,93.6379938 -0.567602484,88.1518447 0.048173913,79.5720311 C0.412708075,74.4927143 3.11873292,62.100354 8.09115528,42.7392981 C8.35581366,41.7087391 8.53065839,41.0278696 8.56202484,40.8856335 C8.57351553,40.8333975 9.95090683,35.095323 12.9128944,28.0311615 C14.5092298,24.2237702 16.2397888,20.828677 18.0564969,17.9402919 C20.3214037,14.339236 22.7327702,11.5119689 25.2236398,9.53693789 C29.4779876,6.16345963 33.4877391,3.87755901 37.4818385,2.54849068 C42.3852547,0.917 47.2578634,0.791285714 51.9642609,2.17501242 C52.2605342,2.26209317 52.4299752,2.5727764 52.3429565,2.86892547 C52.2558137,3.16519876 51.9451925,3.33463975 51.6489814,3.24762112 C43.4538261,0.838180124 35.0373665,3.18209317 25.918236,10.4129006 C23.5269317,12.3091118 21.2002857,15.0419689 19.0029565,18.5355093 C17.2187329,21.3722174 15.5166832,24.7124037 13.9438882,28.4634596 C11.3321491,34.6925901 9.83947826,40.2834596 9.65382609,41.1261925 C9.61836025,41.2873106 9.45109317,41.9385528 9.17395031,43.0174348 C4.21823602,62.3137702 1.52308075,74.6394224 1.16326708,79.6520932 C0.585192547,87.7069379 5.72252174,92.8851366 8.83624845,95.2548882 C10.8982981,96.8242671 13.2756273,98.0894845 15.5301615,98.8174348 C17.5345714,99.4646398 19.3344472,99.6365652 20.3449441,99.2776832 C20.6358137,99.174205 20.9555031,99.3263168 21.058795,99.6173106 C21.1621491,99.9081801 21.0100994,100.22787 20.7191677,100.331161 C20.2364348,100.502714 19.6628323,100.58464 19.0225217,100.584702" id="path" fill="#A67C52"></path>
                <path d="M61.6928447,65.6815652 C60.2438385,65.6815652 58.2853292,65.1147329 55.8366957,63.9839255 C53.5361988,62.9215031 50.7989938,61.295913 47.7011677,59.1521863 C45.003528,57.285354 42.1029689,55.068646 39.3130932,52.7415652 C36.747441,50.6016273 34.3621615,48.4362857 32.5965714,46.6444224 C30.6976894,44.7173416 29.6286211,43.3480248 29.4189938,42.5744845 C29.3382484,42.2765342 29.5143354,41.9694534 29.8122857,41.8887702 C30.1100497,41.8079006 30.4173168,41.9841118 30.4980621,42.2820621 C30.7782484,43.3162236 34.2139627,47.032559 40.0291801,51.8830559 C46.1222236,56.9652298 52.0547081,61.005913 56.3054534,62.9688944 C60.7222236,65.008646 62.3603602,64.6616894 62.9434658,64.2734286 C63.3888075,63.9769068 63.3923478,63.5167205 63.3921615,63.5121242 C63.3808571,63.2036149 63.6217888,62.9443602 63.9302981,62.9329938 C64.2382484,62.9223106 64.4981242,63.1626211 64.5094907,63.4711304 C64.5241491,63.8709441 64.341354,64.6858509 63.5630932,65.2040497 C63.0847702,65.5224969 62.4601118,65.6815652 61.6928447,65.6815652" id="path" fill="#A67C52"></path>
                <path d="M81.3428571,71.3778385 C79.9131056,71.3779006 78.2116149,71.1782112 76.3934783,70.7757267 C74.4552795,70.3466584 71.5530435,69.4936149 68.7334783,67.8660994 C66.0426708,66.3128696 64.0781988,64.4316273 62.8945963,62.2746087 C59.5039752,56.0956025 57.8811801,50.2888323 57.1169565,46.5056646 C56.2927329,42.4256025 56.1037267,38.7717516 56.6573292,37.6200124 C56.791118,37.3418137 57.1247826,37.2245466 57.403354,37.3583975 C57.6816149,37.4921242 57.7986957,37.8260994 57.6649689,38.1044224 C57.3513043,38.7569068 57.3085714,41.8079006 58.212795,46.284236 C58.961677,49.9912547 60.5518634,55.6812547 63.8747826,61.7367826 C64.9585093,63.7118758 66.7813043,65.4482733 69.2923602,66.8977764 C71.9886335,68.454236 74.7736025,69.2721242 76.6350932,69.6841118 C80.5030435,70.5402609 83.4026708,70.3454161 84.2678261,69.7103851 C84.5167081,69.5277764 84.8665217,69.5812547 85.0492547,69.8301988 C85.2319255,70.0790807 85.178323,70.4289565 84.929441,70.6116273 C84.2355901,71.1209441 82.9640373,71.3778385 81.3428571,71.3778385" id="path" fill="#A67C52"></path>
                <path d="M85.4192484,68.4924286 C85.3858944,68.4924286 85.3519814,68.4893851 85.3179441,68.4831739 C84.3853354,68.3124907 83.4977578,67.4618075 82.6044658,65.8827391 C81.0731615,63.1761553 79.5688137,58.2357826 78.6783789,52.9895714 C77.7625404,47.5936708 77.6887516,43.1156584 78.4811118,41.0108137 C78.5898075,40.7218696 78.9121056,40.5757205 79.201236,40.6846025 C79.490118,40.7933602 79.636205,41.1157205 79.5274472,41.4047267 C78.8126025,43.3036087 78.9096211,47.6709379 79.7806149,52.8025528 C80.6508634,57.9296335 82.1057081,62.7307516 83.5775093,65.3322422 C84.5086273,66.9780807 85.1937826,67.3238571 85.5193106,67.3834845 C85.8229752,67.4390124 86.0240932,67.7302547 85.9685031,68.0339814 C85.9191242,68.3036087 85.6839689,68.4924286 85.4192484,68.4924286" id="path" fill="#A67C52"></path>
                <path d="M30.0007826,75.7915963 C30.0007826,79.764764 28.0174286,82.9855714 25.5709689,82.9855714 C23.1243851,82.9855714 21.1410311,79.764764 21.1410311,75.7915963 C21.1410311,71.8184907 23.1243851,68.5976211 25.5709689,68.5976211 C28.0174286,68.5976211 30.0007826,71.8184907 30.0007826,75.7915963" id="path" fill="#A57142"></path>
                <path d="M18.9160062,67.2802174 C20.8337702,66.3769255 22.2907267,66.5748758 22.7863789,66.6169876 C25.2956957,66.8302174 28.7624037,68.9470497 29.2878075,69.2852484 C29.7954472,69.6120186 30.8424658,70.4209627 30.9322174,70.4852484 C31.1661925,70.6528261 31.3066273,70.8432609 31.3710373,71.0089752 C31.4810373,71.2919565 31.2888634,71.618354 30.9506646,71.6400932 C30.6124037,71.6618944 30.3945155,71.5386646 30.2201677,71.4477329 C30.0458199,71.3568634 29.3385528,70.8306522 28.8860062,70.5054348 C28.4333975,70.1801553 27.6878075,69.5200311 26.6206646,69.0869255 C25.7771242,68.7445031 24.8802919,68.3528882 23.3873106,68.2899068 C22.6070621,68.2570497 21.3929006,68.3112733 20.1750745,68.9081677 C19.7779938,69.1028261 18.9766894,69.6354348 18.6279938,69.8969255 C18.2793602,70.1584161 17.6692981,70.5869876 17.1245155,70.0022671 C16.579795,69.4175466 17.1940807,68.677236 17.3333354,68.5023913 C17.7996708,67.9549379 18.9160062,67.2802174 18.9160062,67.2802174" id="path" fill="#A57142"></path>
                <path d="M17.7471677,64.6246335 C17.9861118,64.8439503 18.0350559,65.1000373 18.0350559,65.4109689 C18.0350559,65.7219006 18.090087,66.0958137 18.3472298,66.435441 C18.6169814,66.7918385 18.8743106,67.0796646 18.8743106,67.0796646 C18.9735652,67.2235776 19.1528199,67.4027081 19.1615155,67.6203478 C19.1687826,67.8039503 19.080087,67.8945714 19.0088447,67.9725839 C18.9377267,68.0505963 18.5596522,68.2333292 18.3085963,68.0336398 C18.0569814,67.8334534 17.8571056,67.5461242 17.6782857,67.3511553 C17.4994658,67.1561863 17.2799627,66.8081118 17.2254286,66.7261863 C17.1730683,66.6473043 17.0505217,66.4775528 16.8675404,65.8785466 C16.7593416,65.5242609 16.730646,64.8625839 17.0540621,64.6319006 C17.3333168,64.4327081 17.6331925,64.5200373 17.7471677,64.6246335" id="path" fill="#A57142"></path>
                <path d="M18.7023789,63.8864534 C18.8428137,63.5434099 19.1689627,63.4590621 19.4145528,63.4791863 C19.707472,63.5032236 19.9456708,63.7599938 19.9854224,63.939 C20.025236,64.1180683 20.0050497,64.4571988 19.9257329,64.6849627 C19.8131863,65.008441 19.8561056,65.2519193 19.8660435,65.3612981 C19.8760435,65.4707391 19.9257329,65.7293727 19.9655466,65.8586273 C20.0053602,65.9879441 20.1225031,66.3496832 20.1545528,66.4255839 C20.1857329,66.4994348 20.2639938,66.6788758 20.2937453,66.726205 C20.3236211,66.773472 20.4001429,67.0130994 20.2708882,67.2219814 C20.1415714,67.4308012 19.886354,67.4575714 19.7964161,67.4576957 C19.530205,67.4580683 19.2095839,67.1488758 19.100205,66.8333478 C18.9637453,66.4396211 18.9098944,66.0144658 18.8615093,65.7094969 C18.814118,65.4109876 18.7025031,65.1045901 18.6128758,64.7645901 C18.499087,64.3330994 18.7023789,63.8864534 18.7023789,63.8864534" id="path" fill="#A57142"></path>
                <path d="M21.3316335,63.3503727 C21.5861056,63.2677019 21.815795,63.3793168 21.9192112,63.4763975 C22.1078447,63.6536025 22.1436832,63.941118 21.9000807,64.2937267 C21.6190248,64.700559 21.565795,65.0773913 21.5462919,65.213913 C21.4973478,65.5572671 21.5527516,65.9635404 21.6261056,66.2443478 C21.6995217,66.5251553 21.7026273,67.1779503 21.2734969,67.1724224 C21.1823168,67.1909317 21.000205,67.174472 20.8337453,66.9354658 C20.6673478,66.6964596 20.5875963,66.2538509 20.5661056,66.0175776 C20.5446149,65.7813665 20.5016957,65.4162733 20.5661056,65.051118 C20.6305155,64.6859627 20.7095217,64.2601863 20.7564161,64.106087 C20.8793975,63.7016149 21.086354,63.4162733 21.3316335,63.3503727" id="path" fill="#A57142"></path>
                <path d="M66.3351553,78.1451739 C66.3351553,82.9476584 63.4986957,86.8408261 59.9997516,86.8408261 C56.5008075,86.8408261 53.6643478,82.9476584 53.6643478,78.1451739 C53.6643478,73.3426894 56.5008075,69.4495217 59.9997516,69.4495217 C63.4986957,69.4495217 66.3351553,73.3426894 66.3351553,78.1451739" id="path" fill="#A57142"></path>
                <path d="M54.176646,67.713 C55.9616149,67.5636211 57.3824845,67.7232484 58.7845963,68.0522547 C60.0057764,68.3187764 61.0421739,68.8449255 61.5871429,69.0534969 C64.4324224,70.4743665 66.0780124,72.0075963 66.4564596,72.3774099 C66.8460248,72.7580311 67.1127329,72.9786522 67.9443478,73.8578447 C68.7760248,74.736913 69.6075776,75.8061677 69.8689441,76.1625652 C70.1303106,76.5189006 69.5691304,76.8040559 69.3745963,76.5664783 C69.1799379,76.3289006 65.896646,73.5232484 64.6632919,72.5975342 C63.4299379,71.6718199 61.1598137,70.4151118 59.1340994,70.0892112 C57.1083851,69.7633727 56.1481366,69.6734969 54.1213043,70.0159814 C52.9297516,70.2172236 50.5548447,71.5530621 50.2801242,71.766913 C50.0053416,71.980764 48.5797516,72.5510124 48.1520497,71.8144286 C47.7243478,71.0778447 48.1078882,70.0380932 48.9123602,69.4671615 C50.2801242,68.4967267 52.7483851,67.8325652 54.176646,67.713" id="path" fill="#A57142"></path>
                <path d="M69.8704286,70.1127329 C69.8671366,69.6037888 69.2652733,69.2391925 68.8135342,69.7502484 C68.4326025,70.3093789 68.3676957,70.5763975 68.1069503,70.9668323 C67.8365776,71.371677 67.6058323,71.5089441 67.1885031,71.7593789 C66.771236,72.0097516 66.7085652,71.9667702 66.3913602,72.1336646 C65.8081925,72.3995031 65.8427888,72.8140373 65.9614224,72.9826087 C66.0345901,73.086646 66.2446522,73.2825466 66.6282547,73.1195031 C66.7614224,73.0629193 67.4799938,72.6895652 67.6468882,72.5810559 C67.8138447,72.4725466 68.3535963,72.1265839 68.5651491,71.9654658 C68.7626025,71.8151553 69.0604907,71.5848447 69.3911118,71.2003106 C69.5347143,71.033354 69.8730373,70.5244099 69.8704286,70.1127329" id="path" fill="#A57142"></path>
                <path d="M68.3461429,68.2575093 C68.1740311,67.7471366 67.4233478,67.5886273 67.120118,68.2580683 C66.9068882,68.9514845 66.9275093,69.2422298 66.7840932,69.724528 C66.6353975,70.2246522 66.4394969,70.4422919 66.0858323,70.8380062 C65.7321677,71.2336584 65.652354,71.2120435 65.3758323,71.4893106 C64.8536584,71.9577578 65.027323,72.3624161 65.2074472,72.4908012 C65.318441,72.570118 65.6032236,72.6944658 65.9504907,72.3981925 C66.0711118,72.2953354 66.6991863,71.6721056 66.837882,71.5054596 C66.9765776,71.3387516 67.4267019,70.8047764 67.5946522,70.5698696 C67.7514224,70.3506149 67.986764,70.0163913 68.2052112,69.5158323 C68.300118,69.2985031 68.4853975,68.6703043 68.3461429,68.2575093" id="path" fill="#A57142"></path>
                <path d="M66.4746646,67.4694658 C66.2075217,67.001764 65.4403789,66.990646 65.2716832,67.7059255 C65.1958447,68.4274161 65.2719938,68.7086584 65.2241056,69.2096522 C65.1744161,69.7290311 65.0240435,69.9803354 64.7531118,70.4366087 C64.4822422,70.8929441 64.3997578,70.8871056 64.1817453,71.2124472 C63.7595093,71.7725714 64.0077702,72.136236 64.2091366,72.2276025 C64.3333602,72.2840621 64.6367143,72.3512671 64.9205652,71.9937516 C65.0190745,71.8695901 65.5155342,71.1371677 65.6195093,70.9469193 C65.7236087,70.7566708 66.0625528,70.1460497 66.1821801,69.8831925 C66.293795,69.637913 66.460441,69.2646211 66.5785155,68.7313292 C66.6297578,68.4998385 66.6907516,67.8477267 66.4746646,67.4694658" id="path" fill="#A57142"></path>
                <path d="M82.4499503,91.8981429 C82.4500503,91.8981429 82.4499503,91.8981429 82.4499503,91.8981429 M82.4969068,91.9226149 C82.4971068,91.9228149 82.4974068,91.9229149 82.4977068,91.9231149 C82.4974068,91.9229149 82.4971068,91.9228149 82.4969068,91.9226149 M82.6546708,93.0333602 C82.2183354,93.0334224 82.0083975,92.9400062 81.8800124,92.8549752 C81.6226211,92.6845404 81.5521863,92.337646 81.7226832,92.0803168 C81.8855404,91.834354 82.2095155,91.7590124 82.4626832,91.9016832 C82.7346087,91.9700683 84.0370311,91.8331739 85.8317516,91.0767764 C86.9818137,90.5921801 89.1021863,89.5088261 90.3821863,87.6985155 L90.3993913,87.6741677 L90.4191429,87.6517453 C91.5532422,86.3642919 92.4583354,83.6723043 92.7128696,82.2583913 C92.729205,82.1678323 92.7488944,82.0651615 92.7707578,81.9516832 C93.0713789,80.3903168 93.7752298,76.7337329 91.1315031,74.1019317 C90.4556646,73.4239193 89.4362236,72.9164037 88.4033043,72.7427391 C87.5169689,72.593795 86.1678385,72.6120559 84.7751056,73.5450994 C84.5188323,73.7169006 84.171441,73.6482671 83.9995155,73.3918075 C83.8277143,73.1352857 83.8963478,72.7880186 84.1528075,72.6162174 C85.4968447,71.7158447 87.0304472,71.3785155 88.5885839,71.6401925 C89.8616273,71.8541677 91.0765342,72.463236 91.9218137,73.3111863 C93.2411925,74.6246025 93.9970932,76.3010621 94.1670932,78.2925528 C94.304236,79.9000062 94.0315652,81.3166522 93.868646,82.1630497 C93.8477143,82.2716832 93.8287702,82.369882 93.8131801,82.456528 C93.697528,83.0989503 93.4102609,84.2028012 92.950882,85.3742298 C92.6010062,86.266528 92.0278385,87.506528 91.2779627,88.3680807 C89.7865963,90.4602547 87.3741118,91.6600683 86.0656646,92.1898199 C85.2127453,92.5351615 84.3324969,92.7997578 83.5869068,92.9347888 C83.1943602,93.0059689 82.8911925,93.0333602 82.6546708,93.0333602" id="path" fill="#A67C52"></path>
                <path d="M63.3918261,63.4882795 L63.3918261,63.4890795 L63.3918261,63.4882795 Z M63.3918261,63.4889627 L63.3918261,63.4931627 L63.3918261,63.4889627 Z M63.1027578,64.6414472 C62.7946211,64.6415093 62.4415776,64.5816957 62.0393416,64.4620683 C61.1156149,64.1874099 59.9062981,63.5816957 58.4449938,62.661882 C56.3135031,61.3201429 54.2169814,59.0115093 52.2138137,55.8002671 C50.5554286,53.1415714 48.9575404,49.8364161 47.5930062,46.2418199 C46.4297764,43.1774099 45.4630683,39.9752981 44.8708944,37.2252981 C44.4599627,35.3166025 44.0560497,32.824677 44.4659255,31.7926894 C44.5798385,31.505795 44.904559,31.3654224 45.191764,31.4795217 C45.4786584,31.5934348 45.6189068,31.9184037 45.5049317,32.2053602 C45.3340621,32.6356708 45.351764,34.146913 45.9638758,36.9900186 C46.544559,39.6867267 47.4943106,42.8315093 48.6382857,45.8450497 C49.9774161,49.3727516 51.5418882,52.6105776 53.1623851,55.208528 C55.0754286,58.2753602 57.0531925,60.464677 59.040646,61.7157329 C62.281764,63.7560435 63.1976025,63.5483416 63.3483478,63.4861056 C63.362882,63.4801429 63.3869814,63.4685901 63.392882,63.4562919 C63.4111429,63.1639938 63.654,62.9326273 63.9508323,62.9326273 L63.9508944,62.9326273 C64.2595901,62.9326273 64.5098385,63.1829379 64.5098385,63.4916957 C64.5098385,63.7831863 64.3526335,64.2103292 63.9096522,64.4549255 C63.6844348,64.5792733 63.4168571,64.6414472 63.1027578,64.6414472 Z" id="path" fill="#A67C52"></path>
                <path d="M20.3728447,98.1398944 C20.2652671,98.1398944 20.1566335,98.1089006 20.0607329,98.0442422 C17.163528,96.0897081 14.7460745,93.1444286 13.069677,89.5268509 C11.8419752,86.8775963 11.010236,83.8185901 10.8448323,81.3439938 L10.8435901,81.3148634 C10.8012298,78.4249876 11.0083106,75.7380932 11.4589317,73.3289006 C12.1043975,69.8783416 13.2386211,67.1161056 14.8301118,65.1187143 C16.8476894,62.5866025 18.3529068,61.3608261 19.8084348,60.1755466 C21.4152671,58.8670373 22.9330311,57.6311366 25.0820994,54.6856087 C26.816882,52.3079689 27.9961988,50.0778447 28.6873789,47.8677205 C29.3635901,45.7058571 29.4417888,43.9065404 29.4417888,42.7411366 C29.4417888,42.4323789 29.6920373,42.1821304 30.000795,42.1821304 C30.3094907,42.1821304 30.5598012,42.4323789 30.5598012,42.7411366 C30.5598012,45.6900807 30.0398634,49.7875963 25.9852671,55.3445528 C23.7510435,58.4068509 22.1055776,59.7467267 20.5143975,61.042441 C19.1047081,62.1904534 17.6470062,63.377472 15.7045217,65.8154224 C14.2280621,67.6683416 13.1693665,70.2654224 12.5579379,73.5344907 C12.1216646,75.8664783 11.9209814,78.4738075 11.9612298,81.2838075 C12.2072547,84.8987764 14.3442112,92.839087 20.6859503,97.1174099 C20.941913,97.2900807 21.0094286,97.6375342 20.8367578,97.8934348 C20.7287453,98.0534969 20.5524099,98.1398944 20.3728447,98.1398944" id="path" fill="#A67C52"></path>
                <path d="M11.6253913,63.9470497 C11.4667578,63.9470497 11.3092422,63.8799689 11.1986832,63.749472 C10.9990559,63.5140062 11.0281242,63.1612733 11.2636522,62.961646 C14.4771304,60.2375466 17.5142733,56.0064286 19.8154534,51.0476708 C21.9957019,46.3497205 23.2461366,41.5437578 23.2461366,37.862205 C23.2461366,37.5534472 23.4963851,37.3031988 23.8051429,37.3031988 C24.1138385,37.3031988 24.3641491,37.5534472 24.3641491,37.862205 C24.3641491,41.7005901 23.0758882,46.6780435 20.8296149,51.5182919 C18.4616025,56.6210248 15.3211056,60.987795 11.9865093,63.814441 C11.8814783,63.9035093 11.7530932,63.9470497 11.6253913,63.9470497" id="path" fill="#A67C52"></path>
            </g>
        </g>
    </g>
</svg>