<?xml version="1.0" encoding="UTF-8"?>
<svg width="22px" height="22px" viewBox="0 0 22 22" version="1.1" xmlns="http://www.w3.org/2000/svg" xmlns:xlink="http://www.w3.org/1999/xlink">
    <title>Facebook</title>
    <defs></defs>
    <g id="Page-1" stroke="none" stroke-width="1" fill="none" fill-rule="evenodd">
        <g id="iPhone-8" transform="translate(-144.000000, -329.000000)" fill="#8C5F38">
            <g id="Group-2" transform="translate(128.000000, 315.000000)">
                <path d="M31.0971685,36.0001649 L31.0971685,27.4806083 L33.9569138,27.4806083 L34.3850554,24.1603264 L31.0971685,24.1603264 L31.0971685,22.0404731 C31.0971685,21.0791741 31.364077,20.4241025 32.7426369,20.4241025 L34.5008696,20.4232782 L34.5008696,17.4536537 C34.1967028,17.413263 33.1530561,17.3228372 31.9388616,17.3228372 C29.4038907,17.3228372 27.6684911,18.8701315 27.6684911,21.7117422 L27.6684911,24.1603264 L24.801492,24.1603264 L24.801492,27.4806083 L27.6684911,27.4806083 L27.6684911,36.0001649 L17.2141945,36.0001649 C16.5434612,36.0001649 16,35.4564563 16,34.7859704 L16,15.2142769 C16,14.5435437 16.5434612,14 17.2141945,14 L36.7858055,14 C37.4562915,14 38,14.5435437 38,15.2142769 L38,34.7859704 C38,35.4564563 37.4562915,36.0001649 36.7858055,36.0001649 L31.0971685,36.0001649 Z" id="icon_facebook"></path>
            </g>
        </g>
    </g>
</svg>
