<?xml version="1.0" encoding="UTF-8"?>
<svg width="24px" height="24px" viewBox="0 0 24 24" version="1.1" xmlns="http://www.w3.org/2000/svg" xmlns:xlink="http://www.w3.org/1999/xlink">
    <title>GitHub</title>
    <defs></defs>
    <g id="Page-1" stroke="none" stroke-width="1" fill="none" fill-rule="evenodd">
        <g id="iPhone-8" transform="translate(-288.000000, -328.000000)" fill="#8C5F38">
            <g id="Group-4" transform="translate(273.000000, 315.000000)">
                <path d="M27,13 C20.37,13 15,18.37 15,25 C15,30.31 18.435,34.795 23.205,36.385 C23.805,36.49 24.03,36.13 24.03,35.815 C24.03,35.53 24.015,34.585 24.015,33.58 C21,34.135 20.22,32.845 19.98,32.17 C19.845,31.825 19.26,30.76 18.75,30.475 C18.33,30.25 17.73,29.695 18.735,29.68 C19.68,29.665 20.355,30.55 20.58,30.91 C21.66,32.725 23.385,32.215 24.075,31.9 C24.18,31.12 24.495,30.595 24.84,30.295 C22.17,29.995 19.38,28.96 19.38,24.37 C19.38,23.065 19.845,21.985 20.61,21.145 C20.49,20.845 20.07,19.615 20.73,17.965 C20.73,17.965 21.735,17.65 24.03,19.195 C24.99,18.925 26.01,18.79 27.03,18.79 C28.05,18.79 29.07,18.925 30.03,19.195 C32.325,17.635 33.33,17.965 33.33,17.965 C33.99,19.615 33.57,20.845 33.45,21.145 C34.215,21.985 34.68,23.05 34.68,24.37 C34.68,28.975 31.875,29.995 29.205,30.295 C29.64,30.67 30.015,31.39 30.015,32.515 C30.015,34.12 30,35.41 30,35.815 C30,36.13 30.225,36.505 30.825,36.385 C35.565,34.795 39,30.295 39,25 C39,18.37 33.63,13 27,13 L27,13 Z" id="iccon_github"></path>
            </g>
        </g>
    </g>
</svg>
