<?xml version="1.0" encoding="UTF-8"?>
<svg width="24px" height="20px" viewBox="0 0 24 20" version="1.1" xmlns="http://www.w3.org/2000/svg" xmlns:xlink="http://www.w3.org/1999/xlink">
    <title>Twitter</title>
    <defs></defs>
    <g id="Page-1" stroke="none" stroke-width="1" fill="none" fill-rule="evenodd">
        <g id="iPhone-8" transform="translate(-71.000000, -330.000000)" fill="#8C5F38" fill-rule="nonzero">
            <g id="Group" transform="translate(56.000000, 315.000000)">
                <path d="M22.5390156,34.515006 C31.5954382,34.515006 36.5510204,27.0048019 36.5510204,20.5030012 C36.5510204,20.2917167 36.5510204,20.0804322 36.5414166,19.8691477 C37.5018007,19.1776711 38.3373349,18.3037215 39,17.3145258 C38.1164466,17.7082833 37.1656663,17.967587 36.1668667,18.092437 C37.1848739,17.487395 37.9627851,16.517407 38.3373349,15.364946 C37.3865546,15.9315726 36.3301321,16.334934 35.2064826,16.5558223 C34.3037215,15.5954382 33.0264106,15 31.6146459,15 C28.8967587,15 26.6878752,17.2088836 26.6878752,19.9267707 C26.6878752,20.3109244 26.7358944,20.6854742 26.8127251,21.0504202 C22.7214886,20.8487395 19.0912365,18.879952 16.6614646,15.9027611 C16.2388956,16.6326531 15.9987995,17.4777911 15.9987995,18.3805522 C15.9987995,20.090036 16.8727491,21.5978391 18.1884754,22.4813926 C17.3817527,22.452581 16.6230492,22.2316927 15.9603842,21.8667467 L15.9603842,21.9339736 C15.9603842,24.3157263 17.6602641,26.3133253 19.907563,26.7647059 C19.4945978,26.879952 19.062425,26.937575 18.6110444,26.937575 C18.2941176,26.937575 17.9867947,26.9087635 17.6890756,26.8511405 C18.3133253,28.8103241 20.1380552,30.2316927 22.2893157,30.270108 C20.5990396,31.5954382 18.4765906,32.3829532 16.1716687,32.3829532 C15.7779112,32.3829532 15.3841537,32.3637455 15,32.3157263 C17.1704682,33.6986795 19.7635054,34.515006 22.5390156,34.515006" id="icon_twitter"></path>
            </g>
        </g>
    </g>
</svg>
