<?xml version="1.0" encoding="UTF-8"?>
<svg width="20px" height="24px" viewBox="0 0 20 24" version="1.1" xmlns="http://www.w3.org/2000/svg" xmlns:xlink="http://www.w3.org/1999/xlink">
    <title>icon_rocket</title>
    <defs></defs>
    <g id="Page-1" stroke="none" stroke-width="1" fill="none" fill-rule="evenodd">
        <g id="iPhone-8" transform="translate(-261.000000, -468.000000)" fill="#8C5F38">
            <path d="M273,492 L268.2,492 C267.238873,492 266.277747,490.652844 265.470762,488.729238 L262.2,492 L261,490.8 L261,486 L263.859047,483.140953 C263.567806,481.590165 263.4,480.069228 263.4,478.8 C263.4,474 267,468 270.6,468 C274.2,468 277.8,474 277.8,478.8 C277.8,480.069228 277.632194,481.590165 277.340953,483.140953 L280.2,486 L280.2,490.8 L279,492 L275.729238,488.729238 C274.922253,490.652844 273.961127,492 273,492 Z M270.6,489.6 L268.661684,489.6 C268.599716,489.522935 268.527067,489.423054 268.447765,489.301457 C268.031118,488.662598 267.584191,487.663106 267.17684,486.441053 C266.346287,483.949394 265.8,480.905797 265.8,478.8 C265.8,474.962068 268.732758,470.4 270.6,470.4 C272.467242,470.4 275.4,474.962068 275.4,478.8 C275.4,480.905797 274.853713,483.949394 274.02316,486.441053 C273.615809,487.663106 273.168882,488.662598 272.752235,489.301457 C272.672933,489.423054 272.600284,489.522935 272.538316,489.6 L270.6,489.6 Z M270.6,480 C271.925483,480 273,478.925483 273,477.6 C273,476.274517 271.925483,475.2 270.6,475.2 C269.274517,475.2 268.2,476.274517 268.2,477.6 C268.2,478.925483 269.274517,480 270.6,480 Z" id="icon_rocket"></path>
        </g>
    </g>
</svg>
