<?xml version="1.0" encoding="UTF-8"?>
<svg width="22px" height="22px" viewBox="0 0 22 22" version="1.1" xmlns="http://www.w3.org/2000/svg" xmlns:xlink="http://www.w3.org/1999/xlink">
    <title>Instagram</title>
    <defs></defs>
    <g id="Page-1" stroke="none" stroke-width="1" fill="none" fill-rule="evenodd">
        <g id="iPhone-8" transform="translate(-217.000000, -329.000000)" fill="#8C5F38">
            <g id="Group-3" transform="translate(201.000000, 315.000000)">
                <path d="M26.9999782,14 C24.0125794,14 23.6379374,14.0126627 22.4647141,14.0661955 C21.2938487,14.1195973 20.4942631,14.3055647 19.7945384,14.5775076 C19.0712348,14.8585764 18.4577476,15.234703 17.8462253,15.8462253 C17.234703,16.4577912 16.8585764,17.0712348 16.5774639,17.794582 C16.305521,18.4942631 16.1195973,19.2938923 16.0661518,20.4647141 C16.0126191,21.637981 16,22.0125357 16,24.9999782 C16,27.9874206 16.0126191,28.362019 16.0661518,29.5352859 C16.1195973,30.7061077 16.305521,31.5057369 16.5774639,32.205418 C16.8585764,32.9287216 17.234703,33.5422088 17.8462253,34.1537747 C18.4577476,34.765297 19.0712348,35.1413799 19.7945384,35.4225361 C20.4942631,35.6944353 21.2938487,35.8804027 22.4647141,35.9338482 C23.6379374,35.9873373 24.0125794,36 26.9999782,36 C29.9874206,36 30.3619753,35.9873373 31.5352423,35.9338482 C32.7061077,35.8804027 33.5056933,35.6944353 34.205418,35.4225361 C34.9287652,35.1413799 35.5422088,34.765297 36.153731,34.1537747 C36.765297,33.5422088 37.1413799,32.9287652 37.4224924,32.205418 C37.6944353,31.5057369 37.8804027,30.7061077 37.9337608,29.5352859 C37.9873373,28.362019 38,27.9874206 38,24.9999782 C38,22.0125794 37.9873373,21.637981 37.9337608,20.4647141 C37.8804027,19.2938923 37.6944353,18.4942631 37.4224924,17.794582 C37.1413799,17.0712348 36.765297,16.4577912 36.153731,15.8462253 C35.5422088,15.234703 34.9287652,14.8585764 34.205418,14.5775076 C33.5056933,14.3055647 32.7061077,14.1195973 31.5352423,14.0661955 C30.3619753,14.0126627 29.9874206,14 26.9999782,14 M26.9999782,15.9819784 C29.9371191,15.9819784 30.2849947,15.9931566 31.4449003,16.046078 C32.5173894,16.095026 33.0998311,16.2742254 33.4874415,16.4248682 C34.0008931,16.6244152 34.3673699,16.8627801 34.752273,17.2476833 C35.1371762,17.6326301 35.3755411,17.9990632 35.5751318,18.5125149 C35.7257309,18.9001252 35.9049303,19.4826106 35.9538783,20.5550561 C36.0067561,21.7149617 36.0179779,22.0628809 36.0179779,24.9999782 C36.0179779,27.9371191 36.0067561,28.2850383 35.9538783,29.4449003 C35.9049303,30.5174331 35.7257309,31.0998748 35.5751318,31.4874851 C35.3755411,32.0008931 35.1371762,32.3673699 34.752273,32.752273 C34.3673699,33.1372199 34.0008931,33.3755848 33.4874415,33.5751318 C33.0998311,33.7257309 32.5173894,33.904974 31.4449003,33.9538783 C30.2851693,34.0067998 29.9373374,34.0180216 26.9999782,34.0180216 C24.062619,34.0180216 23.714787,34.0067998 22.5550561,33.9538783 C21.4825669,33.904974 20.9000816,33.7257309 20.5124712,33.5751318 C19.9990632,33.3755848 19.6325865,33.1372199 19.247727,32.752273 C18.8627801,32.3673699 18.6243716,32.0008931 18.4248245,31.4874851 C18.2742254,31.0998748 18.095026,30.5174331 18.046078,29.4449439 C17.9931566,28.2850383 17.9819784,27.9371191 17.9819784,24.9999782 C17.9819784,22.0628809 17.9931566,21.7149617 18.046078,20.5550561 C18.095026,19.4826106 18.2742254,18.9001252 18.4248245,18.5125149 C18.6243716,17.9990632 18.8627801,17.6326301 19.2476833,17.247727 C19.6325865,16.8627801 19.9990632,16.6244152 20.5124712,16.4248682 C20.9000816,16.2742254 21.4825669,16.095026 22.5550124,16.046078 C23.7149617,15.9931566 24.0628373,15.9819784 26.9999782,15.9819784 M26.9999782,28.6666667 C24.9749465,28.6666667 23.3332897,27.0250099 23.3332897,24.9999782 C23.3332897,22.9749465 24.9749465,21.3333333 26.9999782,21.3333333 C29.0250099,21.3333333 30.6666667,22.9749465 30.6666667,24.9999782 C30.6666667,27.0250099 29.0250099,28.6666667 26.9999782,28.6666667 M26.9999782,19.3513549 C23.8803194,19.3513549 21.3513112,21.8803194 21.3513112,24.9999782 C21.3513112,28.1196806 23.8803194,30.6486451 26.9999782,30.6486451 C30.1196369,30.6486451 32.6486014,28.1196806 32.6486014,24.9999782 C32.6486014,21.8803194 30.1196369,19.3513549 26.9999782,19.3513549 M34.191799,19.1281765 C34.191799,19.8572002 33.6008427,20.4481565 32.8718191,20.4481565 C32.1427954,20.4481565 31.5517955,19.8572002 31.5517955,19.1281765 C31.5517955,18.3991529 32.1427954,17.808153 32.8718191,17.808153 C33.6008427,17.808153 34.191799,18.3991529 34.191799,19.1281765" id="icon_instagram"></path>
            </g>
        </g>
    </g>
</svg>
